<svg width="150" height="48" viewBox="0 0 150 48" fill="none" xmlns="http://www.w3.org/2000/svg">
<path fill-rule="evenodd" clip-rule="evenodd" d="M144.442 48H5.5576C2.49457 48 0 45.2948 0 42V6C0 2.69327 2.49457 0 5.5576 0H144.442C147.503 0 150 2.69327 150 6V42C150 45.2948 147.503 48 144.442 48Z" fill="black"/>
<path d="M144.442 47.575H5.5576C2.75989 47.575 0.425 45.0919 0.425 42V6C0.425 2.89674 2.75937 0.425 5.5576 0.425H144.442C147.238 0.425 149.575 2.89688 149.575 6V42C149.575 45.0917 147.237 47.575 144.442 47.575Z" stroke="white" stroke-opacity="0.29" stroke-width="0.85"/>
<path d="M33.066 25.1395C33.0791 24.1205 33.3498 23.1213 33.8528 22.235C34.3559 21.3487 35.0749 20.604 35.9431 20.0703C35.3916 19.2826 34.664 18.6344 33.8181 18.1771C32.9722 17.7198 32.0314 17.466 31.0703 17.436C29.0201 17.2208 27.0326 18.6628 25.9878 18.6628C24.9229 18.6628 23.3144 17.4573 21.5822 17.493C20.4618 17.5292 19.3699 17.855 18.4129 18.4386C17.4559 19.0223 16.6664 19.8439 16.1213 20.8234C13.76 24.9115 15.5213 30.9196 17.7831 34.2241C18.9148 35.8422 20.2374 37.6496 21.9679 37.5855C23.6614 37.5153 24.2939 36.5057 26.338 36.5057C28.3632 36.5057 28.9566 37.5855 30.7222 37.5448C32.5394 37.5153 33.6843 35.9195 34.7762 34.2861C35.5893 33.1331 36.215 31.8588 36.6301 30.5104C35.5744 30.0639 34.6734 29.3165 34.0396 28.3614C33.4058 27.4063 33.0672 26.2858 33.066 25.1395Z" fill="white"/>
<path d="M29.7371 15.2617C30.7279 14.0723 31.2161 12.5435 31.0979 11C29.5842 11.159 28.1859 11.8824 27.1817 13.0262C26.6908 13.585 26.3147 14.235 26.0751 14.9392C25.8355 15.6434 25.7371 16.3879 25.7854 17.1301C26.5425 17.1379 27.2915 16.9738 27.976 16.6502C28.6606 16.3265 29.2627 15.8518 29.7371 15.2617Z" fill="white"/>
<path d="M55.9722 32.4476H50.3586L49.0105 36.3175H46.6328L51.9499 22H54.4203L59.7374 36.3175H57.3191L55.9722 32.4476ZM50.94 30.6619H55.3897L53.1961 24.3814H53.1348L50.94 30.6619Z" fill="white"/>
<path d="M71.2158 31.1005C71.2158 34.3444 69.4299 36.4285 66.7349 36.4285C66.0522 36.4632 65.3732 36.3103 64.7757 35.9873C64.1783 35.6643 63.6864 35.1843 63.3565 34.6022H63.3055V39.7725H61.1016V25.8807H63.2349V27.6169H63.2755C63.6205 27.0376 64.1207 26.56 64.7227 26.235C65.3247 25.9101 66.0061 25.7499 66.6943 25.7715C69.4194 25.7715 71.2158 27.8657 71.2158 31.1005ZM68.9504 31.1005C68.9504 28.9872 67.827 27.5977 66.1129 27.5977C64.429 27.5977 63.2963 29.0164 63.2963 31.1005C63.2963 33.2038 64.429 34.6123 66.1129 34.6123C67.827 34.6123 68.9504 33.2331 68.9504 31.1005Z" fill="white"/>
<path d="M83.0361 31.1005C83.0361 34.3444 81.2502 36.4285 78.5552 36.4285C77.8725 36.4632 77.1935 36.3103 76.5961 35.9873C75.9986 35.6643 75.5067 35.1843 75.1768 34.6022H75.1258V39.7725H72.9219V25.8807H75.0552V27.6169H75.0957C75.4408 27.0375 75.9409 26.56 76.543 26.235C77.145 25.9101 77.8264 25.7499 78.5146 25.7715C81.2398 25.7715 83.0361 27.8657 83.0361 31.1005ZM80.7707 31.1005C80.7707 28.9871 79.6473 27.5977 77.9332 27.5977C76.2493 27.5977 75.1166 29.0164 75.1166 31.1005C75.1166 33.2038 76.2493 34.6123 77.9332 34.6123C79.6473 34.6123 80.7707 33.233 80.7707 31.1005H80.7707Z" fill="white"/>
<path d="M90.8421 32.3287C91.0054 33.7485 92.4241 34.6807 94.3629 34.6807C96.2206 34.6807 97.5571 33.7485 97.5571 32.4683C97.5571 31.357 96.751 30.6916 94.8423 30.2355L92.9337 29.7885C90.2294 29.1535 88.974 27.924 88.974 25.9288C88.974 23.4585 91.1884 21.7617 94.3328 21.7617C97.4447 21.7617 99.578 23.4585 99.6499 25.9288H97.425C97.2918 24.5 96.0769 23.6375 94.3015 23.6375C92.526 23.6375 91.3111 24.5101 91.3111 25.7802C91.3111 26.7924 92.0871 27.388 93.9853 27.844L95.6078 28.2313C98.6295 28.926 99.8849 30.106 99.8849 32.2003C99.8849 34.8789 97.6902 36.5565 94.1995 36.5565C90.9335 36.5565 88.7284 34.9183 88.5859 32.3286L90.8421 32.3287Z" fill="white"/>
<path d="M104.651 23.4102V25.8805H106.692V27.5773H104.651V33.3319C104.651 34.2259 105.059 34.6425 105.957 34.6425C106.199 34.6384 106.441 34.6219 106.682 34.5929V36.2796C106.278 36.3529 105.868 36.3861 105.458 36.3787C103.284 36.3787 102.436 35.5849 102.436 33.5605V27.5773H100.875V25.8805H102.436V23.4102H104.651Z" fill="white"/>
<path d="M107.875 31.1021C107.875 27.8178 109.865 25.7539 112.967 25.7539C116.081 25.7539 118.061 27.8177 118.061 31.1021C118.061 34.3955 116.091 36.4503 112.967 36.4503C109.845 36.4503 107.875 34.3955 107.875 31.1021ZM115.815 31.1021C115.815 28.8491 114.753 27.5194 112.967 27.5194C111.182 27.5194 110.121 28.8592 110.121 31.1021C110.121 33.3641 111.182 34.6837 112.967 34.6837C114.753 34.6837 115.815 33.3641 115.815 31.1021H115.815Z" fill="white"/>
<path d="M119.883 25.8806H121.985V27.6573H122.036C122.178 27.1024 122.512 26.612 122.983 26.2685C123.453 25.9251 124.031 25.7495 124.619 25.7713C124.873 25.7705 125.126 25.7973 125.374 25.8513V27.8555C125.053 27.7602 124.719 27.7165 124.383 27.726C124.063 27.7134 123.744 27.7682 123.448 27.8869C123.151 28.0055 122.885 28.185 122.667 28.4132C122.449 28.6414 122.284 28.9127 122.184 29.2087C122.084 29.5046 122.051 29.8181 122.087 30.1276V36.3191H119.883L119.883 25.8806Z" fill="white"/>
<path d="M135.529 33.2549C135.233 35.1499 133.335 36.4503 130.906 36.4503C127.783 36.4503 125.844 34.4157 125.844 31.1517C125.844 27.8774 127.793 25.7539 130.813 25.7539C133.784 25.7539 135.652 27.7378 135.652 30.9028V31.6369H128.069V31.7664C128.034 32.1506 128.083 32.5376 128.214 32.9017C128.344 33.2659 128.553 33.5988 128.826 33.8785C129.1 34.1581 129.431 34.3781 129.798 34.5237C130.166 34.6693 130.561 34.7373 130.957 34.7231C131.478 34.7706 132.001 34.6533 132.447 34.3888C132.894 34.1242 133.241 33.7266 133.437 33.2549L135.529 33.2549ZM128.079 30.1394H133.447C133.467 29.794 133.413 29.4483 133.289 29.1241C133.165 28.7999 132.973 28.5041 132.726 28.2553C132.478 28.0066 132.181 27.8102 131.852 27.6785C131.523 27.5468 131.169 27.4827 130.813 27.4901C130.454 27.488 130.099 27.5551 129.767 27.6874C129.434 27.8196 129.133 28.0146 128.878 28.2609C128.624 28.5072 128.423 28.8 128.285 29.1224C128.148 29.4449 128.078 29.7905 128.079 30.1394V30.1394Z" fill="white"/>
<path d="M51.2642 9.35983C51.7399 9.32569 52.2172 9.39756 52.6617 9.57023C53.1063 9.74291 53.5069 10.0121 53.8349 10.3584C54.1628 10.7046 54.4097 11.1194 54.558 11.5727C54.7062 12.0259 54.752 12.5065 54.692 12.9796C54.692 15.3069 53.4341 16.6447 51.2642 16.6447H48.6328V9.35983H51.2642ZM49.7643 15.6145H51.1378C51.4777 15.6348 51.8178 15.5791 52.1335 15.4513C52.4491 15.3236 52.7323 15.1271 52.9625 14.8761C53.1926 14.6252 53.3639 14.326 53.4638 14.0005C53.5638 13.675 53.5899 13.3313 53.5402 12.9944C53.5863 12.6589 53.5575 12.3173 53.456 11.9942C53.3546 11.6711 53.1829 11.3744 52.9533 11.1254C52.7237 10.8764 52.4418 10.6813 52.1279 10.5541C51.8141 10.4268 51.476 10.3705 51.1378 10.3893H49.7643V15.6145Z" fill="white"/>
<path d="M55.9732 13.8915C55.9386 13.5303 55.98 13.1657 56.0945 12.8214C56.2091 12.477 56.3944 12.1603 56.6385 11.8918C56.8826 11.6232 57.1802 11.4086 57.5121 11.2618C57.844 11.1149 58.2029 11.0391 58.5658 11.0391C58.9287 11.0391 59.2877 11.1149 59.6196 11.2618C59.9515 11.4086 60.249 11.6232 60.4931 11.8918C60.7372 12.1603 60.9225 12.477 61.0371 12.8214C61.1517 13.1657 61.193 13.5303 61.1584 13.8915C61.1936 14.2532 61.1528 14.6182 61.0385 14.9632C60.9243 15.3081 60.7391 15.6253 60.4949 15.8944C60.2508 16.1635 59.953 16.3785 59.6208 16.5257C59.2885 16.6729 58.9292 16.7489 58.5658 16.7489C58.2024 16.7489 57.8431 16.6729 57.5109 16.5257C57.1786 16.3785 56.8809 16.1635 56.6367 15.8944C56.3925 15.6253 56.2074 15.3081 56.0931 14.9632C55.9788 14.6182 55.938 14.2532 55.9732 13.8915ZM60.0424 13.8915C60.0424 12.6999 59.5071 12.003 58.5676 12.003C57.6245 12.003 57.094 12.6999 57.094 13.8916C57.094 15.0928 57.6245 15.7843 58.5676 15.7843C59.5071 15.7843 60.0425 15.088 60.0425 13.8915H60.0424Z" fill="white"/>
<path d="M68.0467 16.646H66.9212L65.785 12.5971H65.6992L64.5677 16.646H63.4529L61.9375 11.1484H63.038L64.0228 15.3434H64.1039L65.2342 11.1484H66.275L67.4053 15.3434H67.4912L68.4712 11.1484H69.5562L68.0467 16.646Z" fill="white"/>
<path d="M70.8359 11.1447H71.8804V12.0181H71.9615C72.099 11.7044 72.331 11.4415 72.625 11.2659C72.9191 11.0903 73.2607 11.0109 73.602 11.0386C73.8695 11.0185 74.1381 11.0588 74.3879 11.1566C74.6377 11.2544 74.8623 11.4072 75.045 11.6035C75.2278 11.7999 75.364 12.0349 75.4436 12.291C75.5232 12.5472 75.5442 12.818 75.5049 13.0834V16.6423H74.4199V13.3558C74.4199 12.4724 74.036 12.033 73.2336 12.033C73.052 12.0245 72.8707 12.0554 72.7021 12.1236C72.5336 12.1918 72.3818 12.2956 72.2571 12.4279C72.1324 12.5602 72.0378 12.7179 71.9798 12.8902C71.9218 13.0626 71.9017 13.2454 71.9209 13.4262V16.6423H70.8359L70.8359 11.1447Z" fill="white"/>
<path d="M77.2266 9H78.3115V16.6437H77.2266V9Z" fill="white"/>
<path d="M79.8247 13.8916C79.7902 13.5303 79.8316 13.1658 79.9462 12.8214C80.0607 12.477 80.2461 12.1604 80.4902 11.8918C80.7343 11.6232 81.0319 11.4086 81.3638 11.2618C81.6957 11.1149 82.0547 11.0391 82.4176 11.0391C82.7806 11.0391 83.1396 11.1149 83.4715 11.2618C83.8034 11.4086 84.101 11.6232 84.3451 11.8918C84.5892 12.1604 84.7745 12.477 84.8891 12.8214C85.0037 13.1658 85.0451 13.5303 85.0105 13.8916C85.0457 14.2533 85.0048 14.6183 84.8905 14.9633C84.7762 15.3082 84.591 15.6254 84.3469 15.8945C84.1027 16.1636 83.8049 16.3786 83.4726 16.5258C83.1404 16.6729 82.781 16.749 82.4176 16.749C82.0543 16.749 81.6949 16.6729 81.3627 16.5258C81.0304 16.3786 80.7326 16.1636 80.4884 15.8945C80.2442 15.6254 80.059 15.3082 79.9447 14.9633C79.8304 14.6183 79.7896 14.2533 79.8247 13.8916ZM83.894 13.8916C83.894 12.7 83.3586 12.0031 82.4191 12.0031C81.476 12.0031 80.9455 12.7 80.9455 13.8917C80.9455 15.0929 81.4761 15.7844 82.4191 15.7844C83.3586 15.7844 83.894 15.0881 83.894 13.8916H83.894Z" fill="white"/>
<path d="M86.1484 15.088C86.1484 14.0984 86.8853 13.5279 88.1932 13.4469L89.6824 13.361V12.8865C89.6824 12.3059 89.2984 11.978 88.5568 11.978C87.9512 11.978 87.5315 12.2003 87.4111 12.589H86.3607C86.4715 11.6447 87.3598 11.0391 88.6069 11.0391C89.9852 11.0391 90.7626 11.7252 90.7626 12.8865V16.6428H89.7181V15.8702H89.6323C89.458 16.1473 89.2134 16.3732 88.9233 16.5249C88.6331 16.6765 88.308 16.7485 87.981 16.7334C87.7502 16.7574 87.5169 16.7327 87.2962 16.6611C87.0755 16.5894 86.8723 16.4723 86.6997 16.3173C86.527 16.1623 86.3888 15.9728 86.2938 15.7611C86.1989 15.5493 86.1493 15.3201 86.1484 15.088ZM89.6824 14.6183V14.1587L88.3399 14.2445C87.5828 14.2952 87.2394 14.5527 87.2394 15.0374C87.2394 15.5322 87.6686 15.8201 88.2588 15.8201C88.4317 15.8376 88.6064 15.8201 88.7725 15.7688C88.9385 15.7174 89.0926 15.6331 89.2254 15.521C89.3582 15.4088 89.4671 15.2711 89.5456 15.1161C89.6241 14.961 89.6706 14.7917 89.6824 14.6183Z" fill="white"/>
<path d="M92.1953 13.8925C92.1953 12.1554 93.0883 11.0549 94.4773 11.0549C94.8209 11.0391 95.1619 11.1214 95.4605 11.2922C95.759 11.463 96.0028 11.7152 96.1632 12.0194H96.2443V9H97.3293V16.6437H96.2896V15.7751H96.2038C96.0309 16.0773 95.7786 16.3264 95.4743 16.4955C95.17 16.6645 94.8252 16.7471 94.4774 16.7343C93.0788 16.7344 92.1953 15.6339 92.1953 13.8925ZM93.3161 13.8925C93.3161 15.0586 93.8657 15.7603 94.785 15.7603C95.6995 15.7603 96.2646 15.0485 96.2646 13.8973C96.2646 12.7515 95.6935 12.0296 94.785 12.0296C93.8717 12.0296 93.3161 12.736 93.3161 13.8925H93.3161Z" fill="white"/>
<path d="M101.809 13.8915C101.775 13.5303 101.816 13.1657 101.93 12.8214C102.045 12.477 102.23 12.1603 102.474 11.8918C102.719 11.6232 103.016 11.4086 103.348 11.2618C103.68 11.1149 104.039 11.0391 104.402 11.0391C104.765 11.0391 105.124 11.1149 105.456 11.2618C105.787 11.4086 106.085 11.6232 106.329 11.8918C106.573 12.1603 106.758 12.477 106.873 12.8214C106.988 13.1657 107.029 13.5303 106.994 13.8915C107.03 14.2532 106.989 14.6182 106.874 14.9632C106.76 15.3081 106.575 15.6253 106.331 15.8944C106.087 16.1635 105.789 16.3785 105.457 16.5257C105.124 16.6729 104.765 16.7489 104.402 16.7489C104.038 16.7489 103.679 16.6729 103.347 16.5257C103.015 16.3785 102.717 16.1635 102.473 15.8944C102.228 15.6253 102.043 15.3081 101.929 14.9632C101.815 14.6182 101.774 14.2532 101.809 13.8915ZM105.878 13.8915C105.878 12.6999 105.343 12.003 104.404 12.003C103.46 12.003 102.93 12.6999 102.93 13.8916C102.93 15.0928 103.46 15.7843 104.404 15.7843C105.343 15.7843 105.878 15.088 105.878 13.8915Z" fill="white"/>
<path d="M108.461 11.1447H109.505V12.0181H109.586C109.724 11.7044 109.956 11.4415 110.25 11.2659C110.544 11.0903 110.886 11.0109 111.227 11.0386C111.495 11.0185 111.763 11.0588 112.013 11.1566C112.263 11.2544 112.487 11.4072 112.67 11.6035C112.853 11.7999 112.989 12.0349 113.069 12.291C113.148 12.5472 113.169 12.818 113.13 13.0834V16.6423H112.045V13.3558C112.045 12.4724 111.661 12.033 110.859 12.033C110.677 12.0245 110.496 12.0554 110.327 12.1236C110.159 12.1918 110.007 12.2956 109.882 12.4279C109.757 12.5602 109.663 12.7179 109.605 12.8902C109.547 13.0626 109.527 13.2454 109.546 13.4262V16.6423H108.461V11.1447Z" fill="white"/>
<path d="M119.256 9.77734V11.1711H120.447V12.085H119.256V14.9119C119.256 15.4878 119.493 15.7399 120.033 15.7399C120.171 15.7395 120.31 15.7311 120.447 15.7149V16.6186C120.252 16.6535 120.055 16.672 119.857 16.6741C118.65 16.6741 118.17 16.2496 118.17 15.1897V12.085H117.297V11.1711H118.17V9.77734H119.256Z" fill="white"/>
<path d="M121.93 9H123.005V12.0296H123.091C123.235 11.713 123.474 11.4486 123.774 11.2723C124.073 11.0961 124.42 11.0166 124.767 11.0448C125.033 11.0303 125.299 11.0747 125.546 11.1749C125.793 11.275 126.015 11.4285 126.196 11.6242C126.377 11.82 126.512 12.0532 126.593 12.3074C126.673 12.5615 126.696 12.8302 126.661 13.0943V16.6437H125.575V13.362C125.575 12.4838 125.166 12.0391 124.399 12.0391C124.212 12.0238 124.025 12.0495 123.849 12.1142C123.674 12.179 123.515 12.2813 123.383 12.4141C123.251 12.5469 123.15 12.7068 123.086 12.8828C123.022 13.0588 122.998 13.2465 123.015 13.4329V16.6437H121.93L121.93 9Z" fill="white"/>
<path d="M132.984 15.1585C132.837 15.6609 132.517 16.0955 132.082 16.3863C131.646 16.6771 131.123 16.8054 130.602 16.749C130.24 16.7585 129.88 16.6892 129.547 16.5457C129.215 16.4022 128.917 16.188 128.675 15.918C128.434 15.648 128.254 15.3287 128.148 14.9822C128.042 14.6357 128.013 14.2703 128.063 13.9114C128.014 13.5513 128.044 13.1852 128.15 12.8376C128.255 12.49 128.434 12.1692 128.675 11.8969C128.915 11.6245 129.211 11.407 129.543 11.259C129.874 11.111 130.234 11.0361 130.597 11.0392C132.127 11.0392 133.05 12.0842 133.05 13.8106V14.1892H129.168V14.25C129.151 14.4517 129.176 14.6548 129.242 14.8462C129.308 15.0375 129.414 15.213 129.551 15.3613C129.689 15.5096 129.857 15.6274 130.043 15.7073C130.229 15.7871 130.429 15.8272 130.632 15.8249C130.891 15.8561 131.154 15.8094 131.387 15.6907C131.62 15.572 131.812 15.3867 131.94 15.1584L132.984 15.1585ZM129.168 13.3868H131.945C131.958 13.2022 131.933 13.0169 131.871 12.8427C131.809 12.6684 131.711 12.5091 131.583 12.375C131.456 12.2409 131.302 12.1349 131.131 12.0639C130.96 11.9928 130.776 11.9583 130.591 11.9626C130.404 11.9602 130.217 11.9955 130.044 12.0662C129.87 12.1369 129.712 12.2418 129.579 12.3745C129.447 12.5072 129.342 12.6652 129.271 12.839C129.2 13.0129 129.165 13.1991 129.168 13.3868H129.168Z" fill="white"/>
</svg>
