<svg width="150" height="48" viewBox="0 0 150 48" fill="none" xmlns="http://www.w3.org/2000/svg">
<path fill-rule="evenodd" clip-rule="evenodd" d="M144.442 48H5.5576C2.49457 48 0 45.2948 0 42V6C0 2.69327 2.49457 0 5.5576 0H144.442C147.503 0 150 2.69327 150 6V42C150 45.2948 147.503 48 144.442 48Z" fill="black"/>
<path d="M144.442 47.5H5.5576C2.80672 47.5 0.5 45.056 0.5 42V6C0.5 2.93265 2.80609 0.5 5.5576 0.5H144.442C147.191 0.5 149.5 2.93282 149.5 6V42C149.5 45.0559 147.191 47.5 144.442 47.5Z" stroke="white" stroke-opacity="0.29"/>
<path d="M80.1044 16.4288C79.2045 16.4288 78.4459 16.1139 77.846 15.4941C77.251 14.8916 76.9188 14.0611 76.9337 13.2132C76.9337 12.3082 77.2411 11.5421 77.846 10.9347C78.4434 10.3149 79.202 10 80.1019 10C80.9919 10 81.7505 10.3149 82.3604 10.9347C82.9653 11.562 83.2727 12.3281 83.2727 13.2132C83.2627 14.1206 82.9553 14.8867 82.3604 15.4916C81.7629 16.1164 81.0043 16.4288 80.1044 16.4288ZM53.328 16.4288C52.4479 16.4288 51.6843 16.1189 51.0596 15.5065C50.4398 14.8966 50.125 14.1255 50.125 13.2156C50.125 12.3057 50.4398 11.5347 51.0596 10.9248C51.6719 10.3124 52.4355 10.0025 53.328 10.0025C53.7643 10.0025 54.1882 10.0893 54.5948 10.2653C54.9939 10.4364 55.3187 10.6694 55.5591 10.9545L55.6186 11.0264L54.9468 11.6859L54.8774 11.6041C54.4981 11.1529 53.9899 10.9322 53.318 10.9322C52.7181 10.9322 52.195 11.1454 51.7637 11.5669C51.3298 11.9909 51.1092 12.5462 51.1092 13.2181C51.1092 13.89 51.3298 14.4454 51.7637 14.8693C52.195 15.2908 52.7181 15.504 53.318 15.504C53.9576 15.504 54.4956 15.2908 54.9146 14.8693C55.1625 14.6214 55.3162 14.2743 55.3707 13.8355H53.2164V12.9082H56.2954L56.3078 12.9925C56.3301 13.1487 56.3524 13.3099 56.3524 13.4586C56.3524 14.314 56.0946 15.0057 55.5839 15.5164C55.0038 16.1214 54.2452 16.4288 53.328 16.4288ZM88.9299 16.2974H87.9804L85.0725 11.6438L85.0973 12.4818V16.2949H84.1478V10.1339H85.2311L85.2609 10.181L87.9953 14.5644L87.9705 13.7289V10.1339H88.9299V16.2974ZM72.9696 16.2974H72.0078V11.0611H70.3393V10.1339H74.6356V11.0611H72.9672V16.2974H72.9696ZM69.556 16.2974H68.5966V10.1339H69.556V16.2974ZM64.164 16.2974H63.2046V11.0611H61.5362V10.1339H65.8324V11.0611H64.164V16.2974ZM60.9288 16.2875H57.2498V10.1339H60.9288V11.0611H58.2117V12.752H60.6635V13.6694H58.2117V15.3602H60.9288V16.2875ZM78.55 14.8569C78.9789 15.2859 79.4995 15.5016 80.1044 15.5016C80.7267 15.5016 81.2349 15.2908 81.6588 14.8569C82.0802 14.4355 82.2934 13.8826 82.2934 13.2156C82.2934 12.5487 82.0802 11.9934 81.6613 11.5744C81.2324 11.1454 80.7093 10.9297 80.1069 10.9297C79.4846 10.9297 78.9764 11.1405 78.555 11.5744C78.1335 11.9958 77.9203 12.5487 77.9203 13.2156C77.9203 13.8826 78.1311 14.4379 78.55 14.8569Z" fill="white"/>
<path fill-rule="evenodd" clip-rule="evenodd" d="M76.8454 24.9009C74.5026 24.9009 72.6037 26.6785 72.6037 29.1305C72.6037 31.5602 74.515 33.3602 76.8454 33.3602C79.1881 33.3602 81.0871 31.5702 81.0871 29.1305C81.0871 26.6785 79.1881 24.9009 76.8454 24.9009ZM76.8454 31.6842C75.5637 31.6842 74.4605 30.6231 74.4605 29.1206C74.4605 27.5959 75.5662 26.557 76.8454 26.557C78.127 26.557 79.2302 27.5959 79.2302 29.1206C79.2327 30.633 78.127 31.6842 76.8454 31.6842ZM67.591 24.9009C65.2483 24.9009 63.3493 26.6785 63.3493 29.1305C63.3493 31.5602 65.2607 33.3602 67.591 33.3602C69.9337 33.3602 71.8327 31.5702 71.8327 29.1305C71.8327 26.6785 69.9312 24.9009 67.591 24.9009ZM67.591 31.6842C66.3093 31.6842 65.2061 30.6231 65.2061 29.1206C65.2061 27.5959 66.3118 26.557 67.591 26.557C68.8727 26.557 69.9758 27.5959 69.9758 29.1206C69.9758 30.633 68.8727 31.6842 67.591 31.6842ZM56.5789 26.1926V27.9826H60.8752C60.7438 28.9867 60.4116 29.728 59.9034 30.2363C59.2737 30.866 58.3019 31.5503 56.5889 31.5503C53.9486 31.5503 51.8836 29.4181 51.8836 26.7777C51.8836 24.1372 53.9486 22.005 56.5889 22.005C58.0143 22.005 59.0531 22.5678 59.824 23.2868L61.0933 22.0174C60.0224 20.991 58.5969 20.2051 56.5988 20.2051C52.9768 20.2051 49.9375 23.1554 49.9375 26.7678C49.9375 30.39 52.9744 33.3305 56.5988 33.3305C58.5548 33.3305 60.0224 32.6908 61.1826 31.4859C62.3651 30.3032 62.7394 28.6347 62.7394 27.2884C62.7394 26.8694 62.7072 26.4926 62.6403 26.1727H56.5765C56.5789 26.1703 56.5789 26.1926 56.5789 26.1926ZM101.621 27.5859C101.267 26.6364 100.196 24.8909 97.9993 24.8909C95.8227 24.8909 94.0129 26.6041 94.0129 29.1206C94.0129 31.4958 95.8028 33.3503 98.21 33.3503C100.144 33.3503 101.269 32.1677 101.733 31.4735L100.297 30.5115C99.8214 31.2181 99.1595 31.6817 98.2199 31.6817C97.2704 31.6817 96.6061 31.2503 96.1648 30.3999L101.82 28.057C101.82 28.0595 101.621 27.5859 101.621 27.5859ZM95.8549 28.9991C95.8103 27.3653 97.1242 26.5347 98.0638 26.5347C98.805 26.5347 99.4223 26.8992 99.633 27.4297L95.8549 28.9991ZM91.2612 33.0974H93.118V20.6712H91.2612V33.0974ZM88.2119 25.8405H88.145C87.726 25.3422 86.9302 24.8909 85.9138 24.8909C83.8041 24.8909 81.8605 26.7479 81.8605 29.133C81.8605 31.5082 83.7942 33.3429 85.9138 33.3429C86.9178 33.3429 87.726 32.8891 88.145 32.3809H88.2119V32.9883C88.2119 34.6023 87.3492 35.4726 85.9584 35.4726C84.8205 35.4726 84.114 34.6544 83.8264 33.9701L82.2126 34.6445C82.6761 35.7602 83.9132 37.1411 85.956 37.1411C88.1326 37.1411 89.977 35.8593 89.977 32.733V25.1438H88.2218V25.8405C88.2243 25.8405 88.2119 25.8405 88.2119 25.8405ZM86.0799 31.6842C84.7982 31.6842 83.7273 30.6132 83.7273 29.133C83.7273 27.6405 84.7982 26.5595 86.0799 26.5595C87.3492 26.5595 88.3334 27.6529 88.3334 29.133C88.3458 30.6132 87.3517 31.6842 86.0799 31.6842ZM110.315 20.6712H105.875V33.0974H107.732V28.3917H110.318C112.373 28.3917 114.393 26.9017 114.393 24.5364C114.393 22.1712 112.38 20.6712 110.315 20.6712ZM110.37 26.6562H107.73V22.3918H110.37C111.761 22.3918 112.547 23.5397 112.547 24.524C112.547 25.4984 111.751 26.6562 110.37 26.6562ZM121.836 24.8785C120.487 24.8785 119.096 25.4761 118.521 26.7777L120.167 27.462C120.522 26.7777 121.171 26.5446 121.858 26.5446C122.82 26.5446 123.792 27.1198 123.814 28.1463V28.2777C123.482 28.0892 122.753 27.8016 121.88 27.8016C120.103 27.8016 118.3 28.7735 118.3 30.5958C118.3 32.2644 119.758 33.3354 121.382 33.3354C122.629 33.3354 123.316 32.7726 123.744 32.1206H123.811V33.0825H125.601V28.3223C125.601 26.1058 123.955 24.8785 121.836 24.8785ZM121.603 31.6842C120.995 31.6842 120.145 31.3867 120.145 30.6231C120.145 29.6611 121.206 29.2967 122.111 29.2967C122.929 29.2967 123.316 29.4727 123.801 29.7157C123.668 30.8313 122.726 31.6743 121.603 31.6842ZM132.131 25.1438L129.999 30.5338H129.932L127.723 25.1438H125.725L129.04 32.6784L127.151 36.8659H129.084L134.184 25.1438H132.131ZM115.417 33.0974H117.274V20.6712H115.417V33.0974Z" fill="white"/>
<path fill-rule="evenodd" clip-rule="evenodd" d="M15.4537 11.3912C15.1661 11.7011 15 12.1746 15 12.7944V34.7783C15 35.3982 15.1661 35.8717 15.4636 36.1692L15.5404 36.2362L27.8565 23.919V23.6438L15.5305 11.3242L15.4537 11.3912Z" fill="url(#paint0_linear_9494_66629)"/>
<path fill-rule="evenodd" clip-rule="evenodd" d="M31.9516 28.0391L27.8438 23.9309V23.6433L31.9516 19.5352L32.0408 19.5897L36.8998 22.3516C38.2906 23.1351 38.2906 24.4293 36.8998 25.2227L32.0408 27.9846L31.9516 28.0391Z" fill="url(#paint1_linear_9494_66629)"/>
<path fill-rule="evenodd" clip-rule="evenodd" d="M32.0431 27.9846L27.846 23.7871L15.4531 36.1811C15.9068 36.667 16.6679 36.7216 17.5182 36.248L32.0431 27.9846Z" fill="url(#paint2_linear_9494_66629)"/>
<path fill-rule="evenodd" clip-rule="evenodd" d="M32.0431 19.5877L17.5182 11.3366C16.6679 10.8507 15.9043 10.9176 15.4531 11.4036L27.846 23.7852L32.0431 19.5877Z" fill="url(#paint3_linear_9494_66629)"/>
<path opacity="0.25" fill-rule="evenodd" clip-rule="evenodd" d="M17.5187 11.4808L36.9026 22.4939C37.5323 22.8484 37.8868 23.312 37.9413 23.7856C37.9413 23.2674 37.5992 22.7467 36.9026 22.3501L17.5187 11.337C16.128 10.5412 15 11.2056 15 12.7949V12.9387C15 11.347 16.128 10.6949 17.5187 11.4808Z" fill="white"/>
<defs>
<linearGradient id="paint0_linear_9494_66629" x1="26.7517" y1="12.5573" x2="7.02335" y2="17.8134" gradientUnits="userSpaceOnUse">
<stop stop-color="#00A0FF"/>
<stop offset="0.00657" stop-color="#00A1FF"/>
<stop offset="0.2601" stop-color="#00BEFF"/>
<stop offset="0.5122" stop-color="#00D2FF"/>
<stop offset="0.7604" stop-color="#00DFFF"/>
<stop offset="1" stop-color="#00E3FF"/>
</linearGradient>
<linearGradient id="paint1_linear_9494_66629" x1="38.7135" y1="23.7872" x2="14.6592" y2="23.7872" gradientUnits="userSpaceOnUse">
<stop stop-color="#FFE000"/>
<stop offset="0.4087" stop-color="#FFBD00"/>
<stop offset="0.7754" stop-color="#FFA500"/>
<stop offset="1" stop-color="#FF9C00"/>
</linearGradient>
<linearGradient id="paint2_linear_9494_66629" x1="29.7609" y1="26.0711" x2="13.9211" y2="52.7284" gradientUnits="userSpaceOnUse">
<stop stop-color="#FF3A44"/>
<stop offset="1" stop-color="#C31162"/>
</linearGradient>
<linearGradient id="paint3_linear_9494_66629" x1="12.3325" y1="4.07896" x2="19.3992" y2="15.9845" gradientUnits="userSpaceOnUse">
<stop stop-color="#32A071"/>
<stop offset="0.0685" stop-color="#2DA771"/>
<stop offset="0.4762" stop-color="#15CF74"/>
<stop offset="0.8009" stop-color="#06E775"/>
<stop offset="1" stop-color="#00F076"/>
</linearGradient>
</defs>
</svg>
