<svg width="127" height="34" viewBox="0 0 127 34" fill="none" xmlns="http://www.w3.org/2000/svg">
<path d="M58.9005 0.0175781V14.9236H56.7959V4.66775L52.0484 14.9555L47.464 4.66775V14.9236H45.3594V0.0175781H47.8718L52.0484 9.70013L56.4044 0.0175781H58.9005Z" fill="black"/>
<path d="M66.1599 14.9704H64.0391V0.0166016H66.1599V14.9704Z" fill="black"/>
<path d="M82.5342 0.0166016V14.9545H80.136L73.4306 3.66348V14.9545H71.375V0.0166016H73.8059L80.5438 11.5783V0.0166016H82.5342Z" fill="black"/>
<path d="M98.2206 0V7.21414V9.7144C98.1553 12.6128 95.7571 14.9379 92.7388 14.9379C90.8137 14.9379 89.1496 13.9983 88.1707 12.5491C88.1707 12.5491 87.2734 11.291 87.2734 9.7144V8.52001V0H89.378V7.21414V9.60293C89.378 11.4184 90.879 12.8835 92.7388 12.8835C94.5987 12.8835 96.0997 11.4184 96.0997 9.60293V0H98.2206Z" fill="black"/>
<path d="M113.715 0V1.99066L108.575 1.97473L108.624 14.9857H106.455L106.471 1.97473H101.43V0H113.715Z" fill="black"/>
<path d="M126.002 12.9638V14.9545H116.898V0.0166016H125.904V2.02318H119.003V6.60966H124.485V8.60031H119.003V12.9798H126.002V12.9638Z" fill="black"/>
<path d="M49.7094 33.9045C47.8006 33.9045 46.0549 33.0286 45.125 31.7705V31.7228L46.006 30.2736C46.6912 31.2291 47.9964 31.9776 49.742 32.0891H50.3131C51.814 32.0891 53.0702 31.0061 53.0702 29.5251C53.0702 28.06 51.8956 27.4548 50.3131 27.2159C49.9868 27.1363 49.6931 27.1363 49.2852 27.0726C47.1154 26.6745 45.1739 25.4323 45.1739 23.1868C45.1739 20.9414 47.0338 19.0781 49.2852 19.0781H49.6115C51.1125 19.0781 52.7439 19.7151 53.5433 20.7184L52.5645 22.4861C51.7161 21.5625 50.9004 21.0529 49.6115 20.9892H49.2852C48.1269 20.9892 47.1643 22.0084 47.1643 23.1868C47.1643 24.3175 47.9801 24.9386 49.2852 25.1138C49.8236 25.1775 50.1988 25.1934 50.362 25.2253C52.956 25.5597 54.9301 27.0248 54.9301 29.541C54.9301 32.0413 52.8581 33.8568 50.3131 33.9205H49.7094V33.9045Z" fill="black"/>
<path d="M68.3213 32.5839C67.0977 33.4439 65.5968 33.9535 63.9327 33.9535C59.7399 33.9535 56.2812 30.6092 56.2812 26.4846C56.2812 22.3759 59.7399 19.0156 63.9327 19.0156C65.5968 19.0156 67.0977 19.5093 68.3213 20.3533L67.3588 22.3122C66.3962 21.5477 65.2542 21.1655 63.9327 21.1655C60.8982 21.1655 58.4674 23.5065 58.4674 26.4686C58.4674 29.4307 60.8982 31.8036 63.9327 31.8036C65.2705 31.8036 66.4615 31.3577 67.424 30.5933L68.3213 32.5839Z" fill="black"/>
<path d="M81.7863 19.0156V33.9217H79.6654V27.6949H72.699V33.9217H70.5781V19.0156H72.699V25.8157H79.6654V19.0156H81.7863Z" fill="black"/>
<path d="M98.7627 26.4362C98.7627 30.5449 95.5487 33.921 91.3069 33.921C87.2935 33.921 84.0469 30.5449 84.0469 26.4362C84.0469 22.3434 87.2772 18.9991 91.3069 18.9991C95.5487 18.9832 98.7627 22.3434 98.7627 26.4362ZM96.6744 26.4362C96.6744 23.4741 94.374 21.0534 91.3232 21.0534C88.4681 21.0534 86.1678 23.4581 86.1678 26.4362C86.1678 29.446 88.4681 31.8826 91.3232 31.8826C94.374 31.8667 96.6744 29.446 96.6744 26.4362Z" fill="black"/>
<path d="M115.185 26.4362C115.185 30.5449 111.971 33.921 107.729 33.921C103.715 33.921 100.469 30.5449 100.469 26.4362C100.469 22.3434 103.699 18.9991 107.729 18.9991C111.971 18.9832 115.185 22.3434 115.185 26.4362ZM113.08 26.4362C113.08 23.4741 110.78 21.0534 107.729 21.0534C104.874 21.0534 102.573 23.4581 102.573 26.4362C102.573 29.446 104.874 31.8826 107.729 31.8826C110.796 31.8667 113.08 29.446 113.08 26.4362Z" fill="black"/>
<path d="M119.556 31.9144H125.984V33.9369H117.484V18.999H119.556V31.9144Z" fill="black"/>
<path d="M9.21775 0.224609V4.98626V33.8906H4.68229V4.98626H0V0.224609H9.21775Z" fill="black"/>
<path d="M38.6675 7.73975C37.085 3.66288 32.9575 0.637086 28.4547 0.0478516V4.57062C30.4288 4.96875 32.4844 6.09945 33.5775 7.66012L25.8281 15.782L28.5852 18.2982L34.9642 11.5937L38.6675 7.73975Z" fill="#EC2127"/>
<path d="M35.016 15.145V21.6903C35.016 26.006 31.6389 29.5096 27.2502 29.5096C23.0247 29.5096 19.4845 26.006 19.4845 21.6903V12.167C19.4845 8.42453 22.2253 5.15986 26.1572 4.5547V0.0478516C20.1697 0.812263 15.0469 5.95612 15.0469 12.1829V21.7062C15.0469 28.4585 20.5286 34.0005 27.2339 34.0005C34.0045 34.0005 39.4699 28.4585 39.4699 21.7062V12.167C39.4699 11.6255 39.421 11.084 39.3557 10.5585L35.016 15.145Z" fill="black"/>
</svg>
